<?xml version="1.0" encoding="utf-8"?>
<!-- Generator: Adobe Illustrator 19.2.1, SVG Export Plug-In . SVG Version: 6.00 Build 0)  -->
<svg version="1.1" id="Layer_1" xmlns="http://www.w3.org/2000/svg" xmlns:xlink="http://www.w3.org/1999/xlink" x="0px" y="0px"
	 viewBox="0 0 160.1 156.2" style="enable-background:new 0 0 160.1 156.2;" xml:space="preserve">
<style type="text/css">
	.st0{fill:#010101;}
</style>
<path class="st0" d="M100,138.8c-0.2-3.9,0.3-8.6-0.3-13.3c-0.4-3.1-1.5-5.9-3.4-8.4c-1-1.3-0.7-1.8,0.8-2
	c6.2-0.9,12.2-2.4,17.7-5.4c7.8-4.2,12.4-10.9,14.6-19.3c1.8-6.8,2.5-13.7,1.2-20.7c-0.9-4.7-2.6-9.1-5.7-12.8
	c-1.4-1.7-1.7-3.2-1.1-5.2c1.5-5.5,0.8-10.8-0.8-16.2c-0.7-2.4-2-2.7-4.1-2.4c-6,0.9-11.3,3.6-16.4,6.9c-1.5,1-2.8,1.3-4.6,0.9
	c-12.1-2.8-24.2-3-36.3,0.3c-1.5,0.4-2.5-0.3-3.7-1c-5-3.2-10.2-5.8-16.1-6.9c-3.1-0.5-3.5-0.3-4.5,2.6c-2,5.7-2.3,11.4-0.5,17.1
	c0.3,1,0.2,1.8-0.5,2.5c-4.8,5.7-7.2,12.3-7.2,19.7c0,11.2,1.8,21.9,10.4,30.2c4.5,4.3,10,6.7,15.9,8.3c2.4,0.6,4.9,1,7.3,1.4
	c1.5,0.3,2.4,0.5,1.1,2.3c-1.6,2.1-2.7,4.5-3.1,7.2c-0.3,2.3-2.5,2.6-4.1,3c-8.7,2.1-14.3-0.2-19.4-7.8c-2.8-4.1-6-7.8-11.5-8.2
	c-1.4-0.1-3.4-0.6-4.1,0.9c-0.8,1.8,1.1,2.7,2.4,3.6c4.3,2.7,7,6.8,8.7,11.2c3.1,7.8,9.2,10.4,16.8,10.9c2.7,0.2,5.3,0.1,8-0.5
	c1.7-0.4,2.5,0,2.5,2.1c-0.1,3.8,0.2,7.7,0.1,11.5c-0.1,4.2-2.7,5.8-6.7,4.4c-11.4-4-21.4-10.3-29.9-18.8c-8-8-14.2-17.3-18.2-28
	C0.8,96.6-1,84.1,0.5,71.1c2.1-18.2,9.6-33.9,22.3-47C32,14.7,42.8,8,55.4,4c9.9-3.2,19.9-4.6,30.2-3.8c18.5,1.5,34.7,8.3,48.5,20.9
	c10.9,9.9,18.4,22,22.6,36c3.3,10.9,4.2,21.9,2.6,33.3c-1.8,12.4-5.9,23.8-12.8,34.2c-9.6,14.2-22.4,24.4-38.4,30.5
	c-0.7,0.3-1.4,0.6-2.1,0.8c-3.3,1.1-5.9-0.7-6-4.2C99.9,147.6,100,143.5,100,138.8z"/>
</svg>
